<svg width="512" height="512" viewBox="0 0 512 512" fill="none" xmlns="http://www.w3.org/2000/svg">
  <defs>
    <linearGradient id="bg" x1="90" y1="50" x2="430" y2="470" gradientUnits="userSpaceOnUse">
      <stop stop-color="#0F172A"/>
      <stop offset="1" stop-color="#1D4ED8"/>
    </linearGradient>
    <linearGradient id="shield" x1="170" y1="140" x2="340" y2="380" gradientUnits="userSpaceOnUse">
      <stop stop-color="#F8FAFC"/>
      <stop offset="1" stop-color="#DBEAFE"/>
    </linearGradient>
    <linearGradient id="accent" x1="245" y1="190" x2="305" y2="330" gradientUnits="userSpaceOnUse">
      <stop stop-color="#34D399"/>
      <stop offset="1" stop-color="#60A5FA"/>
    </linearGradient>
  </defs>

  <rect width="512" height="512" rx="112" fill="url(#bg)"/>

  <path d="M256 82C187.5 82 132 106.3 132 154.6V228.4C132 274.2 176.4 318 256 380C335.6 318 380 274.2 380 228.4V154.6C380 106.3 324.5 82 256 82Z" fill="url(#shield)" stroke="#E2E8F0" stroke-width="8"/>

  <path d="M256 184C235.5 184 219 200.5 219 221V241C219 261.5 235.5 278 256 278C276.5 278 293 261.5 293 241V221C293 200.5 276.5 184 256 184Z" fill="url(#accent)"/>

  <path d="M241 241H271" stroke="#0F172A" stroke-width="10" stroke-linecap="round"/>
  <path d="M256 278V321" stroke="#0F172A" stroke-width="10" stroke-linecap="round"/>

  <text x="256" y="430" text-anchor="middle" font-family="Arial, Helvetica, sans-serif" font-size="48" font-weight="800" fill="#F8FAFC">NEXPASS</text>
</svg>
